<mxfile host="app.diagrams.net" modified="2023-11-19T15:26:46.816Z" agent="Mozilla/5.0 (Windows NT 10.0; Win64; x64) AppleWebKit/537.36 (KHTML, like Gecko) Chrome/118.0.0.0 Safari/537.36 OPR/104.0.0.0" etag="3tXJBTA76p1lTg6qm9oc" version="22.1.3" type="device">
  <diagram name="Page-1" id="ivA1rHGIFGznzrAAy6nx">
    <mxGraphModel dx="1263" dy="737" grid="1" gridSize="10" guides="1" tooltips="1" connect="1" arrows="1" fold="1" page="1" pageScale="1" pageWidth="827" pageHeight="1169" math="0" shadow="0">
      <root>
        <mxCell id="0" />
        <mxCell id="1" parent="0" />
        <mxCell id="I41HJoZNq6cN9vo62ZGP-1" value=":Administrador" style="shape=umlActor;verticalLabelPosition=bottom;verticalAlign=top;html=1;outlineConnect=0;" parent="1" vertex="1">
          <mxGeometry x="14" y="40" width="60" height="120" as="geometry" />
        </mxCell>
        <mxCell id="I41HJoZNq6cN9vo62ZGP-2" value="UC02: Registar utilizador" style="text;html=1;strokeColor=none;fillColor=none;align=center;verticalAlign=middle;whiteSpace=wrap;rounded=0;fontSize=14;fontStyle=1" parent="1" vertex="1">
          <mxGeometry x="234" y="10" width="170" height="30" as="geometry" />
        </mxCell>
        <mxCell id="I41HJoZNq6cN9vo62ZGP-3" value=":Sistema" style="rounded=0;whiteSpace=wrap;html=1;" parent="1" vertex="1">
          <mxGeometry x="544" y="100" width="120" height="60" as="geometry" />
        </mxCell>
        <mxCell id="I41HJoZNq6cN9vo62ZGP-4" value="" style="endArrow=none;dashed=1;html=1;rounded=0;" parent="1" edge="1">
          <mxGeometry width="50" height="50" relative="1" as="geometry">
            <mxPoint x="44" y="190" as="sourcePoint" />
            <mxPoint x="44" y="640" as="targetPoint" />
          </mxGeometry>
        </mxCell>
        <mxCell id="I41HJoZNq6cN9vo62ZGP-5" value="" style="endArrow=none;dashed=1;html=1;rounded=0;" parent="1" edge="1">
          <mxGeometry width="50" height="50" relative="1" as="geometry">
            <mxPoint x="603.5" y="170" as="sourcePoint" />
            <mxPoint x="604" y="640" as="targetPoint" />
          </mxGeometry>
        </mxCell>
        <mxCell id="I41HJoZNq6cN9vo62ZGP-6" value="" style="endArrow=classic;html=1;rounded=0;" parent="1" edge="1">
          <mxGeometry width="50" height="50" relative="1" as="geometry">
            <mxPoint x="44" y="200" as="sourcePoint" />
            <mxPoint x="604" y="200" as="targetPoint" />
          </mxGeometry>
        </mxCell>
        <mxCell id="I41HJoZNq6cN9vo62ZGP-7" value="RegistarNovoUtilizador()" style="text;html=1;strokeColor=none;fillColor=none;align=center;verticalAlign=middle;whiteSpace=wrap;rounded=0;" parent="1" vertex="1">
          <mxGeometry x="244" y="170" width="150" height="30" as="geometry" />
        </mxCell>
        <mxCell id="I41HJoZNq6cN9vo62ZGP-8" value="" style="endArrow=classic;html=1;rounded=0;dashed=1;" parent="1" edge="1">
          <mxGeometry width="50" height="50" relative="1" as="geometry">
            <mxPoint x="604" y="240" as="sourcePoint" />
            <mxPoint x="44" y="240" as="targetPoint" />
          </mxGeometry>
        </mxCell>
        <mxCell id="I41HJoZNq6cN9vo62ZGP-9" value="Pede os Detalhes ao Utilizador" style="text;html=1;strokeColor=none;fillColor=none;align=center;verticalAlign=middle;whiteSpace=wrap;rounded=0;" parent="1" vertex="1">
          <mxGeometry x="242" y="216" width="176" height="30" as="geometry" />
        </mxCell>
        <mxCell id="I41HJoZNq6cN9vo62ZGP-10" value="" style="endArrow=classic;html=1;rounded=0;" parent="1" edge="1">
          <mxGeometry width="50" height="50" relative="1" as="geometry">
            <mxPoint x="44" y="279" as="sourcePoint" />
            <mxPoint x="604" y="279" as="targetPoint" />
          </mxGeometry>
        </mxCell>
        <mxCell id="I41HJoZNq6cN9vo62ZGP-11" value="InserirDetalhesUtilizador(primeiroNome, ultimoNome, email, password, papel)" style="text;html=1;strokeColor=none;fillColor=none;align=center;verticalAlign=middle;whiteSpace=wrap;rounded=0;" parent="1" vertex="1">
          <mxGeometry x="130" y="255" width="417" height="30" as="geometry" />
        </mxCell>
        <mxCell id="I41HJoZNq6cN9vo62ZGP-13" value="alt" style="shape=umlFrame;whiteSpace=wrap;html=1;pointerEvents=0;fontStyle=1;fontSize=14;strokeWidth=2;" parent="1" vertex="1">
          <mxGeometry x="14" y="300" width="620" height="100" as="geometry" />
        </mxCell>
        <mxCell id="I41HJoZNq6cN9vo62ZGP-14" value="[papel == indústria]" style="text;html=1;strokeColor=none;fillColor=none;align=center;verticalAlign=middle;whiteSpace=wrap;rounded=0;fontStyle=1;fontSize=13;" parent="1" vertex="1">
          <mxGeometry x="74" y="300" width="150" height="30" as="geometry" />
        </mxCell>
        <mxCell id="I41HJoZNq6cN9vo62ZGP-15" value="" style="endArrow=classic;html=1;rounded=0;" parent="1" edge="1">
          <mxGeometry width="50" height="50" relative="1" as="geometry">
            <mxPoint x="44" y="383" as="sourcePoint" />
            <mxPoint x="604" y="383" as="targetPoint" />
          </mxGeometry>
        </mxCell>
        <mxCell id="I41HJoZNq6cN9vo62ZGP-16" value="FornecerContatoFarmacovigilancia(contato)" style="text;html=1;strokeColor=none;fillColor=none;align=center;verticalAlign=middle;whiteSpace=wrap;rounded=0;" parent="1" vertex="1">
          <mxGeometry x="189" y="358" width="260" height="30" as="geometry" />
        </mxCell>
        <mxCell id="I41HJoZNq6cN9vo62ZGP-18" value="VerificarUtilizadorExistente(nomeUtilizador, email)" style="html=1;align=left;spacingLeft=2;endArrow=block;rounded=0;edgeStyle=orthogonalEdgeStyle;curved=0;rounded=0;" parent="1" edge="1">
          <mxGeometry relative="1" as="geometry">
            <mxPoint x="604" y="408" as="sourcePoint" />
            <Array as="points">
              <mxPoint x="634" y="408" />
              <mxPoint x="634" y="458" />
              <mxPoint x="609" y="458" />
            </Array>
            <mxPoint x="604" y="458" as="targetPoint" />
            <mxPoint as="offset" />
          </mxGeometry>
        </mxCell>
        <mxCell id="I41HJoZNq6cN9vo62ZGP-19" value="alt" style="shape=umlFrame;whiteSpace=wrap;html=1;pointerEvents=0;fontStyle=1;fontSize=14;strokeWidth=2;" parent="1" vertex="1">
          <mxGeometry x="14" y="474" width="720" height="150" as="geometry" />
        </mxCell>
        <mxCell id="I41HJoZNq6cN9vo62ZGP-20" value="[Utilizador não existente]" style="text;html=1;strokeColor=none;fillColor=none;align=center;verticalAlign=middle;whiteSpace=wrap;rounded=0;fontStyle=1;fontSize=13;" parent="1" vertex="1">
          <mxGeometry x="74" y="474" width="170" height="30" as="geometry" />
        </mxCell>
        <mxCell id="I41HJoZNq6cN9vo62ZGP-21" value="RegistarUtilizador()" style="html=1;align=left;spacingLeft=2;endArrow=block;rounded=0;edgeStyle=orthogonalEdgeStyle;curved=0;rounded=0;" parent="1" edge="1">
          <mxGeometry relative="1" as="geometry">
            <mxPoint x="604" y="487" as="sourcePoint" />
            <Array as="points">
              <mxPoint x="634" y="487" />
              <mxPoint x="634" y="537" />
              <mxPoint x="609" y="537" />
            </Array>
            <mxPoint x="604" y="537" as="targetPoint" />
          </mxGeometry>
        </mxCell>
        <mxCell id="I41HJoZNq6cN9vo62ZGP-22" value="O utilizador é registado e o caso de uso termina" style="shape=note;whiteSpace=wrap;html=1;backgroundOutline=1;darkOpacity=0.05;size=18;" parent="1" vertex="1">
          <mxGeometry x="449" y="484" width="134" height="60" as="geometry" />
        </mxCell>
        <mxCell id="I41HJoZNq6cN9vo62ZGP-25" value="" style="endArrow=none;dashed=1;html=1;strokeWidth=1;rounded=0;exitX=-0.002;exitY=0.5;exitDx=0;exitDy=0;exitPerimeter=0;entryX=1;entryY=0.488;entryDx=0;entryDy=0;entryPerimeter=0;" parent="1" edge="1">
          <mxGeometry width="50" height="50" relative="1" as="geometry">
            <mxPoint x="12.559999999999945" y="555" as="sourcePoint" />
            <mxPoint x="734" y="553.1999999999998" as="targetPoint" />
          </mxGeometry>
        </mxCell>
        <mxCell id="I41HJoZNq6cN9vo62ZGP-26" value="[Utilizador existente]" style="text;html=1;strokeColor=none;fillColor=none;align=center;verticalAlign=middle;whiteSpace=wrap;rounded=0;fontStyle=1;fontSize=13;" parent="1" vertex="1">
          <mxGeometry x="54" y="555" width="170" height="30" as="geometry" />
        </mxCell>
        <mxCell id="I41HJoZNq6cN9vo62ZGP-27" value="" style="endArrow=classic;html=1;rounded=0;dashed=1;" parent="1" edge="1">
          <mxGeometry width="50" height="50" relative="1" as="geometry">
            <mxPoint x="604" y="599" as="sourcePoint" />
            <mxPoint x="44" y="599" as="targetPoint" />
          </mxGeometry>
        </mxCell>
        <mxCell id="I41HJoZNq6cN9vo62ZGP-28" value="Informa que o Utilizador já existe" style="text;html=1;strokeColor=none;fillColor=none;align=center;verticalAlign=middle;whiteSpace=wrap;rounded=0;" parent="1" vertex="1">
          <mxGeometry x="1050" y="1440" width="196" height="30" as="geometry" />
        </mxCell>
        <mxCell id="aioCvGVNAqlo_v0UQYM8-3" value="" style="endArrow=classic;html=1;rounded=0;dashed=1;" parent="1" edge="1">
          <mxGeometry width="50" height="50" relative="1" as="geometry">
            <mxPoint x="604" y="344" as="sourcePoint" />
            <mxPoint x="44" y="344" as="targetPoint" />
          </mxGeometry>
        </mxCell>
        <mxCell id="aioCvGVNAqlo_v0UQYM8-4" value="Pede à Industria para inserir Contato Farmacovigilância" style="text;html=1;strokeColor=none;fillColor=none;align=center;verticalAlign=middle;whiteSpace=wrap;rounded=0;" parent="1" vertex="1">
          <mxGeometry x="163" y="320" width="312" height="30" as="geometry" />
        </mxCell>
        <mxCell id="28BJzdq3VNodr1aJ6TF8-1" value="&lt;h1 style=&quot;font-size: 26px;&quot;&gt;&lt;font style=&quot;font-size: 26px;&quot;&gt;Contrato UC02: Registar Utilizador&lt;/font&gt;&lt;/h1&gt;&lt;p style=&quot;font-size: 26px;&quot;&gt;Operação: RegistarNovoUtilizador()&lt;/p&gt;&lt;p style=&quot;font-size: 26px;&quot;&gt;Referencias:Use Cases: Registar Utilizador&lt;/p&gt;&lt;p style=&quot;font-size: 26px;&quot;&gt;Pré-Condições:&amp;nbsp;&lt;/p&gt;&lt;p style=&quot;font-size: 26px;&quot;&gt;&lt;span style=&quot;white-space: pre;&quot;&gt;&#x9;&lt;/span&gt;&lt;span style=&quot;white-space: pre;&quot;&gt;&#x9;&lt;/span&gt;-Estado do registo tem de estar&amp;nbsp; &amp;nbsp; &amp;nbsp; &amp;nbsp;&lt;span style=&quot;&quot;&gt;&lt;span style=&quot;white-space: pre;&quot;&gt;&amp;nbsp;&amp;nbsp;&amp;nbsp;&amp;nbsp;&lt;/span&gt;&lt;/span&gt;&lt;span style=&quot;&quot;&gt;&lt;span style=&quot;white-space: pre;&quot;&gt;&amp;nbsp;&amp;nbsp;&amp;nbsp;&amp;nbsp;&lt;/span&gt;&lt;/span&gt;&lt;span style=&quot;&quot;&gt;&lt;span style=&quot;white-space: pre;&quot;&gt;&amp;nbsp;&amp;nbsp;&amp;nbsp;&amp;nbsp;&lt;/span&gt;&lt;/span&gt;&amp;nbsp; &amp;nbsp; &amp;nbsp; &amp;nbsp; &amp;nbsp; &amp;nbsp; &amp;nbsp; &amp;nbsp; &amp;nbsp; &amp;nbsp; &amp;nbsp; operacional&lt;/p&gt;&lt;p style=&quot;font-size: 26px;&quot;&gt;Pós-Condições:&amp;nbsp;&lt;/p&gt;&lt;p style=&quot;font-size: 26px;&quot;&gt;&lt;span style=&quot;white-space: pre;&quot;&gt;&#x9;&lt;/span&gt;&lt;span style=&quot;white-space: pre;&quot;&gt;&#x9;&lt;/span&gt;-Verificar se os dados introduzidos são &lt;span style=&quot;&quot;&gt;&lt;span style=&quot;white-space: pre;&quot;&gt;&amp;nbsp;&amp;nbsp;&amp;nbsp;&amp;nbsp;&lt;/span&gt;&lt;/span&gt;&lt;span style=&quot;&quot;&gt;&lt;span style=&quot;white-space: pre;&quot;&gt;&amp;nbsp;&amp;nbsp;&amp;nbsp;&amp;nbsp;&lt;/span&gt;&lt;/span&gt;&amp;nbsp; &amp;nbsp; &amp;nbsp; &amp;nbsp; &amp;nbsp; &amp;nbsp; válidos.&lt;/p&gt;&lt;p style=&quot;font-size: 26px;&quot;&gt;&lt;span style=&quot;background-color: initial;&quot;&gt;&lt;span style=&quot;white-space: pre;&quot;&gt;&amp;nbsp;&amp;nbsp;&amp;nbsp;&amp;nbsp;&lt;/span&gt;&lt;/span&gt;&lt;span style=&quot;background-color: initial;&quot;&gt;&lt;span style=&quot;white-space: pre;&quot;&gt;&amp;nbsp;&amp;nbsp;&amp;nbsp;&amp;nbsp;&lt;/span&gt;&lt;/span&gt;&lt;span style=&quot;background-color: initial;&quot;&gt;&lt;span style=&quot;white-space: pre;&quot;&gt;&amp;nbsp;&amp;nbsp;&amp;nbsp;&amp;nbsp;&lt;/span&gt;&lt;/span&gt;&lt;span style=&quot;background-color: initial;&quot;&gt;&amp;nbsp; &amp;nbsp;-Atributos primeiroNome, ultimoNome,&amp;nbsp; &amp;nbsp; &amp;nbsp; &lt;/span&gt;&lt;span style=&quot;background-color: initial;&quot;&gt;&lt;span style=&quot;white-space: pre;&quot;&gt;&amp;nbsp;&amp;nbsp;&amp;nbsp;&amp;nbsp;&lt;/span&gt;&lt;/span&gt;&lt;span style=&quot;background-color: initial;&quot;&gt;&lt;span style=&quot;white-space: pre;&quot;&gt;&amp;nbsp;&amp;nbsp;&amp;nbsp;&amp;nbsp;&lt;/span&gt;&lt;span style=&quot;&quot;&gt;&lt;span style=&quot;white-space: pre;&quot;&gt;&amp;nbsp;&amp;nbsp;&amp;nbsp;&amp;nbsp;&lt;/span&gt;&lt;/span&gt; &lt;/span&gt;&lt;span style=&quot;background-color: initial;&quot;&gt;&amp;nbsp; password e papel atribuidos aos registro.&lt;/span&gt;&lt;span style=&quot;white-space: pre;&quot;&gt;&amp;nbsp;&amp;nbsp;&amp;nbsp;&amp;nbsp;&lt;/span&gt;&lt;span style=&quot;background-color: initial; border-color: var(--border-color);&quot;&gt;&lt;span style=&quot;white-space: pre;&quot;&gt;&amp;nbsp;&amp;nbsp;&amp;nbsp;&amp;nbsp;&lt;/span&gt;&lt;/span&gt;&lt;span style=&quot;background-color: initial; border-color: var(--border-color);&quot;&gt;&lt;span style=&quot;white-space: pre;&quot;&gt;&amp;nbsp;&amp;nbsp;&amp;nbsp;&amp;nbsp;&lt;/span&gt;&lt;/span&gt;&lt;span style=&quot;background-color: initial;&quot;&gt;&amp;nbsp; &amp;nbsp;&lt;/span&gt;&lt;/p&gt;&lt;p style=&quot;font-size: 26px;&quot;&gt;&lt;span style=&quot;background-color: initial;&quot;&gt;&lt;span style=&quot;white-space: pre;&quot;&gt;&#x9;&lt;/span&gt;&lt;span style=&quot;white-space: pre;&quot;&gt;&#x9;&lt;/span&gt;-Registo criado com sucesso.&lt;/span&gt;&lt;br&gt;&lt;/p&gt;&lt;p style=&quot;font-size: 26px;&quot;&gt;&lt;br&gt;&lt;/p&gt;&lt;p style=&quot;font-size: 26px;&quot;&gt;&lt;br&gt;&lt;/p&gt;&lt;p style=&quot;font-size: 26px;&quot;&gt;&lt;br&gt;&lt;/p&gt;&lt;p style=&quot;font-size: 26px;&quot;&gt;&lt;span style=&quot;&quot;&gt;&lt;span style=&quot;white-space: pre;&quot;&gt;&amp;nbsp;&amp;nbsp;&amp;nbsp;&amp;nbsp;&lt;/span&gt;&lt;span style=&quot;&quot;&gt;&lt;span style=&quot;white-space: pre;&quot;&gt;&amp;nbsp;&amp;nbsp;&amp;nbsp;&amp;nbsp;&lt;/span&gt;&lt;/span&gt;&lt;span style=&quot;&quot;&gt;&lt;span style=&quot;white-space: pre;&quot;&gt;&amp;nbsp;&amp;nbsp;&amp;nbsp;&amp;nbsp;&lt;/span&gt;&lt;/span&gt; &lt;/span&gt;&amp;nbsp;&amp;nbsp;&lt;br&gt;&lt;/p&gt;&lt;p style=&quot;font-size: 26px;&quot;&gt;&lt;br&gt;&lt;/p&gt;" style="text;html=1;strokeColor=none;fillColor=none;spacing=5;spacingTop=-20;whiteSpace=wrap;overflow=hidden;rounded=0;" vertex="1" parent="1">
          <mxGeometry y="690" width="840" height="630" as="geometry" />
        </mxCell>
      </root>
    </mxGraphModel>
  </diagram>
</mxfile>
